<?xml version="1.0" encoding="utf-8"?>
<!-- Generator: Adobe Illustrator 16.0.0, SVG Export Plug-In . SVG Version: 6.00 Build 0)  -->
<!DOCTYPE svg PUBLIC "-//W3C//DTD SVG 1.1//EN" "http://www.w3.org/Graphics/SVG/1.1/DTD/svg11.dtd">
<svg xmlns="http://www.w3.org/2000/svg" xmlns:xlink="http://www.w3.org/1999/xlink" version="1.1" id="Layer_1" x="0px" y="0px" width="512" height="512" viewBox="0 0 512 512" enable-background="new 0 0 512 512" xml:space="preserve">
<g id="caviar">
	<path fill="#CBD0D8" d="M432.216,97.112L88.355,95.847c-54.007,7.812-88.163,19.344-88.163,32.202   c0,23.555,114.576,42.656,255.901,42.656c141.341,0,255.901-19.101,255.901-42.656C511.995,115.87,481.354,104.878,432.216,97.112z   "/>
	<g>
		<g>
			<path fill="#FB6D51" d="M117.479,160.033c0,17.671-14.32,31.991-31.983,31.991c-17.664,0-31.984-14.32-31.984-31.991     c0-17.664,14.32-31.984,31.984-31.984C103.159,128.049,117.479,142.369,117.479,160.033z"/>
		</g>
		<path opacity="0.2" fill="#FFFFFF" d="M85.496,149.377c0,5.883-4.773,10.656-10.664,10.656c-5.883,0-10.664-4.773-10.664-10.656    c0-5.891,4.781-10.664,10.664-10.664C80.722,138.713,85.496,143.486,85.496,149.377z"/>
	</g>
	<g>
		<g>
			<path fill="#E8563F" d="M160.135,160.033c0,17.671-14.32,31.991-31.992,31.991c-17.664,0-31.984-14.32-31.984-31.991     c0-17.664,14.32-31.984,31.984-31.984C145.814,128.049,160.135,142.369,160.135,160.033z"/>
		</g>
		<path opacity="0.2" fill="#FFFFFF" d="M128.143,149.377c0,5.883-4.773,10.656-10.664,10.656c-5.882,0-10.656-4.773-10.656-10.656    c0-5.891,4.773-10.664,10.656-10.664C123.37,138.713,128.143,143.486,128.143,149.377z"/>
	</g>
	<g>
		<g>
			<path fill="#FB6D51" d="M202.782,160.033c0,17.671-14.32,31.991-31.984,31.991c-17.671,0-31.991-14.32-31.991-31.991     c0-17.664,14.32-31.984,31.991-31.984C188.462,128.049,202.782,142.369,202.782,160.033z"/>
		</g>
		<path opacity="0.2" fill="#FFFFFF" d="M170.798,149.377c0,5.883-4.773,10.656-10.664,10.656s-10.664-4.773-10.664-10.656    c0-5.891,4.773-10.664,10.664-10.664S170.798,143.486,170.798,149.377z"/>
	</g>
	<g>
		<g>
			<path fill="#E8563F" d="M245.43,160.033c0,17.671-14.32,31.991-31.983,31.991c-17.664,0-31.992-14.32-31.992-31.991     c0-17.664,14.328-31.984,31.992-31.984C231.11,128.049,245.43,142.369,245.43,160.033z"/>
		</g>
		<path opacity="0.2" fill="#FFFFFF" d="M213.446,149.377c0,5.883-4.773,10.656-10.664,10.656s-10.664-4.773-10.664-10.656    c0-5.891,4.773-10.664,10.664-10.664S213.446,143.486,213.446,149.377z"/>
	</g>
	<g>
		<g>
			<path fill="#FB6D51" d="M288.093,160.033c0,17.671-14.328,31.991-31.999,31.991c-17.664,0-31.984-14.32-31.984-31.991     c0-17.664,14.32-31.984,31.984-31.984C273.765,128.049,288.093,142.369,288.093,160.033z"/>
		</g>
		<path opacity="0.2" fill="#FFFFFF" d="M256.094,149.377c0,5.883-4.773,10.656-10.664,10.656c-5.882,0-10.656-4.773-10.656-10.656    c0-5.891,4.773-10.664,10.656-10.664C251.32,138.713,256.094,143.486,256.094,149.377z"/>
	</g>
	<g>
		<g>
			<path fill="#E8563F" d="M330.733,160.033c0,17.671-14.328,31.991-31.984,31.991c-17.672,0-31.991-14.32-31.991-31.991     c0-17.664,14.319-31.984,31.991-31.984C316.405,128.049,330.733,142.369,330.733,160.033z"/>
		</g>
		<path opacity="0.2" fill="#FFFFFF" d="M298.749,149.377c0,5.883-4.781,10.656-10.656,10.656c-5.906,0-10.672-4.773-10.672-10.656    c0-5.891,4.766-10.664,10.672-10.664C293.968,138.713,298.749,143.486,298.749,149.377z"/>
	</g>
	<g>
		<g>
			<path fill="#FB6D51" d="M373.372,160.033c0,17.671-14.312,31.991-31.967,31.991c-17.672,0-32-14.32-32-31.991     c0-17.664,14.328-31.984,32-31.984C359.061,128.049,373.372,142.369,373.372,160.033z"/>
		</g>
		<path opacity="0.2" fill="#FFFFFF" d="M341.405,149.377c0,5.883-4.781,10.656-10.672,10.656s-10.672-4.773-10.672-10.656    c0-5.891,4.781-10.664,10.672-10.664S341.405,143.486,341.405,149.377z"/>
	</g>
	<g>
		<g>
			<path fill="#E8563F" d="M416.028,160.033c0,17.671-14.312,31.991-31.984,31.991c-17.671,0-31.983-14.32-31.983-31.991     c0-17.664,14.312-31.984,31.983-31.984C401.716,128.049,416.028,142.369,416.028,160.033z"/>
		</g>
		<path opacity="0.2" fill="#FFFFFF" d="M384.044,149.377c0,5.883-4.766,10.656-10.672,10.656c-5.874,0-10.655-4.773-10.655-10.656    c0-5.891,4.781-10.664,10.655-10.664C379.278,138.713,384.044,143.486,384.044,149.377z"/>
	</g>
	<g>
		<g>
			<path fill="#FB6D51" d="M138.807,117.385c0,17.671-14.32,31.992-31.984,31.992c-17.671,0-31.992-14.32-31.992-31.992     c0-17.664,14.32-31.984,31.992-31.984C124.487,85.401,138.807,99.722,138.807,117.385z"/>
		</g>
		<path opacity="0.2" fill="#FFFFFF" d="M106.823,106.722c0,5.891-4.773,10.664-10.664,10.664s-10.664-4.773-10.664-10.664    c0-5.883,4.773-10.656,10.664-10.656S106.823,100.839,106.823,106.722z"/>
	</g>
	<g>
		<g>
			<path fill="#E8563F" d="M181.455,117.385c0,17.671-14.32,31.992-31.984,31.992s-31.992-14.32-31.992-31.992     c0-17.664,14.328-31.984,31.992-31.984S181.455,99.722,181.455,117.385z"/>
		</g>
		<path opacity="0.2" fill="#FFFFFF" d="M149.471,106.722c0,5.891-4.773,10.664-10.664,10.664c-5.883,0-10.664-4.773-10.664-10.664    c0-5.883,4.781-10.656,10.664-10.656C144.697,96.065,149.471,100.839,149.471,106.722z"/>
	</g>
	<g>
		<g>
			<path fill="#FB6D51" d="M224.11,117.385c0,17.671-14.32,31.992-31.992,31.992c-17.664,0-31.983-14.32-31.983-31.992     c0-17.664,14.32-31.984,31.983-31.984C209.79,85.401,224.11,99.722,224.11,117.385z"/>
		</g>
		<path opacity="0.2" fill="#FFFFFF" d="M192.118,106.722c0,5.891-4.773,10.664-10.664,10.664c-5.883,0-10.656-4.773-10.656-10.664    c0-5.883,4.773-10.656,10.656-10.656C187.345,96.065,192.118,100.839,192.118,106.722z"/>
	</g>
	<g>
		<g>
			<path fill="#E8563F" d="M266.758,117.385c0,17.671-14.32,31.992-31.984,31.992c-17.671,0-31.992-14.32-31.992-31.992     c0-17.664,14.32-31.984,31.992-31.984C252.438,85.401,266.758,99.722,266.758,117.385z"/>
		</g>
		<path opacity="0.2" fill="#FFFFFF" d="M234.774,106.722c0,5.891-4.773,10.664-10.664,10.664s-10.664-4.773-10.664-10.664    c0-5.883,4.773-10.656,10.664-10.656S234.774,100.839,234.774,106.722z"/>
	</g>
	<g>
		<g>
			<path fill="#FB6D51" d="M309.405,117.385c0,17.671-14.312,31.992-31.984,31.992c-17.663,0-31.991-14.32-31.991-31.992     c0-17.664,14.328-31.984,31.991-31.984C295.093,85.401,309.405,99.722,309.405,117.385z"/>
		</g>
		<path opacity="0.2" fill="#FFFFFF" d="M277.421,106.722c0,5.891-4.766,10.664-10.663,10.664c-5.891,0-10.664-4.773-10.664-10.664    c0-5.883,4.773-10.656,10.664-10.656C272.655,96.065,277.421,100.839,277.421,106.722z"/>
	</g>
	<g>
		<g>
			<path fill="#E8563F" d="M352.061,117.385c0,17.671-14.327,31.992-31.999,31.992c-17.656,0-31.969-14.32-31.969-31.992     c0-17.664,14.312-31.984,31.969-31.984C337.733,85.401,352.061,99.722,352.061,117.385z"/>
		</g>
		<path opacity="0.2" fill="#FFFFFF" d="M320.062,106.722c0,5.891-4.766,10.664-10.656,10.664c-5.875,0-10.656-4.773-10.656-10.664    c0-5.883,4.781-10.656,10.656-10.656C315.296,96.065,320.062,100.839,320.062,106.722z"/>
	</g>
	<g>
		<g>
			<path fill="#FB6D51" d="M394.716,117.385c0,17.671-14.328,31.992-31.999,31.992c-17.655,0-31.983-14.32-31.983-31.992     c0-17.664,14.328-31.984,31.983-31.984C380.388,85.401,394.716,99.722,394.716,117.385z"/>
		</g>
		<path opacity="0.2" fill="#FFFFFF" d="M362.717,106.722c0,5.891-4.781,10.664-10.656,10.664c-5.891,0-10.655-4.773-10.655-10.664    c0-5.883,4.765-10.656,10.655-10.656C357.936,96.065,362.717,100.839,362.717,106.722z"/>
	</g>
	<g>
		<g>
			<path fill="#FB6D51" d="M202.782,74.738c0,17.664-14.32,31.984-31.984,31.984c-17.671,0-31.991-14.32-31.991-31.984     s14.32-31.984,31.991-31.984C188.462,42.754,202.782,57.074,202.782,74.738z"/>
		</g>
		<path opacity="0.2" fill="#FFFFFF" d="M170.798,64.074c0,5.891-4.773,10.664-10.664,10.664s-10.664-4.773-10.664-10.664    c0-5.882,4.773-10.664,10.664-10.664S170.798,58.191,170.798,64.074z"/>
	</g>
	<g>
		<g>
			<path fill="#E8563F" d="M245.43,74.738c0,17.664-14.32,31.984-31.983,31.984c-17.664,0-31.992-14.32-31.992-31.984     s14.328-31.984,31.992-31.984C231.11,42.754,245.43,57.074,245.43,74.738z"/>
		</g>
		<path opacity="0.2" fill="#FFFFFF" d="M213.446,64.074c0,5.891-4.773,10.664-10.664,10.664s-10.664-4.773-10.664-10.664    c0-5.882,4.773-10.664,10.664-10.664S213.446,58.191,213.446,64.074z"/>
	</g>
	<g>
		<g>
			<path fill="#FB6D51" d="M288.093,74.738c0,17.664-14.328,31.984-31.999,31.984c-17.664,0-31.984-14.32-31.984-31.984     s14.32-31.984,31.984-31.984C273.765,42.754,288.093,57.074,288.093,74.738z"/>
		</g>
		<path opacity="0.2" fill="#FFFFFF" d="M256.094,64.074c0,5.891-4.773,10.664-10.664,10.664c-5.882,0-10.656-4.773-10.656-10.664    c0-5.882,4.773-10.664,10.656-10.664C251.32,53.41,256.094,58.191,256.094,64.074z"/>
	</g>
	<g>
		<g>
			<path fill="#E8563F" d="M330.733,74.738c0,17.664-14.328,31.984-31.984,31.984c-17.672,0-31.991-14.32-31.991-31.984     s14.319-31.984,31.991-31.984C316.405,42.754,330.733,57.074,330.733,74.738z"/>
		</g>
		<path opacity="0.2" fill="#FFFFFF" d="M298.749,64.074c0,5.891-4.781,10.664-10.656,10.664c-5.906,0-10.672-4.773-10.672-10.664    c0-5.882,4.766-10.664,10.672-10.664C293.968,53.41,298.749,58.191,298.749,64.074z"/>
	</g>
	<g>
		<g>
			<path fill="#FB6D51" d="M373.372,74.738c0,17.664-14.312,31.984-31.967,31.984c-17.672,0-32-14.32-32-31.984     s14.328-31.984,32-31.984C359.061,42.754,373.372,57.074,373.372,74.738z"/>
		</g>
		<path opacity="0.2" fill="#FFFFFF" d="M341.405,64.074c0,5.891-4.781,10.664-10.672,10.664s-10.672-4.773-10.672-10.664    c0-5.882,4.781-10.664,10.672-10.664S341.405,58.191,341.405,64.074z"/>
	</g>
	<g>
		<g>
			<path fill="#E8563F" d="M437.356,117.385c0,17.671-14.328,31.992-31.984,31.992c-17.672,0-32-14.32-32-31.992     c0-17.664,14.328-31.984,32-31.984C423.028,85.401,437.356,99.722,437.356,117.385z"/>
		</g>
		<path opacity="0.2" fill="#FFFFFF" d="M405.372,106.722c0,5.891-4.781,10.664-10.656,10.664c-5.906,0-10.672-4.773-10.672-10.664    c0-5.883,4.766-10.656,10.672-10.656C400.591,96.065,405.372,100.839,405.372,106.722z"/>
	</g>
	<g>
		<g>
			<path fill="#FB6D51" d="M458.684,160.033c0,17.671-14.312,31.991-31.999,31.991c-17.656,0-31.969-14.32-31.969-31.991     c0-17.664,14.312-31.984,31.969-31.984C444.372,128.049,458.684,142.369,458.684,160.033z"/>
		</g>
		<path opacity="0.2" fill="#FFFFFF" d="M426.685,149.377c0,5.883-4.766,10.656-10.656,10.656c-5.875,0-10.656-4.773-10.656-10.656    c0-5.891,4.781-10.664,10.656-10.664C421.919,138.713,426.685,143.486,426.685,149.377z"/>
	</g>
	<g>
		<path fill="#E5E8EC" d="M255.906,170.705c-141.333,0-255.901-19.101-255.901-42.656V426.59    c0,23.562,114.568,42.656,255.901,42.656c141.325,0,255.901-19.094,255.901-42.656V128.049    C511.808,151.604,397.231,170.705,255.906,170.705z"/>
	</g>
	<path fill="#CBD0D8" d="M245.438,469.215c3.469,0.031,6.961,0.031,10.469,0.031c3.633,0,7.25,0,10.852-0.031   c-0.023-5.875-4.789-10.625-10.664-10.625S245.453,463.34,245.438,469.215z"/>
	<path fill="#CBD0D8" d="M330.733,456.246c-5.891,0-10.672,4.781-10.672,10.672c0,0.328,0.031,0.656,0.062,0.984   c7.219-0.312,14.312-0.688,21.266-1.094C341.343,460.965,336.593,456.246,330.733,456.246z"/>
	<path fill="#CBD0D8" d="M394.716,451.246c-5.906,0-10.672,4.781-10.672,10.672c0,0.547,0.047,1.078,0.141,1.594   c7.281-0.703,14.344-1.469,21.156-2.297C404.966,455.652,400.372,451.246,394.716,451.246z"/>
	<path fill="#CBD0D8" d="M458.684,441.84c-5.891,0-10.656,4.781-10.656,10.656c0,0.781,0.078,1.516,0.219,2.234   c7.531-1.422,14.5-2.953,20.844-4.531C468.027,445.418,463.777,441.84,458.684,441.84z"/>
	<path fill="#CBD0D8" d="M181.455,456.246c-5.859,0-10.609,4.75-10.656,10.594c6.961,0.406,14.055,0.766,21.273,1.062   c0.031-0.312,0.047-0.656,0.047-0.984C192.118,461.027,187.345,456.246,181.455,456.246z"/>
	<path fill="#CBD0D8" d="M117.479,451.246c-5.664,0-10.289,4.438-10.625,10.031c6.805,0.812,13.867,1.562,21.156,2.281   c0.078-0.531,0.133-1.094,0.133-1.641C128.143,456.027,123.37,451.246,117.479,451.246z"/>
	<path fill="#CBD0D8" d="M53.512,441.84c-5.133,0-9.414,3.625-10.43,8.453c6.344,1.578,13.312,3.078,20.836,4.516   c0.164-0.75,0.25-1.516,0.25-2.312C64.167,446.621,59.395,441.84,53.512,441.84z"/>
	<path fill="#FECD57" d="M511.808,149.424c-5.25,22.781-117.717,40.991-255.714,40.991C114.769,190.407,0.2,171.314,0.2,147.76   H0.192v257.519l0,0c0,23.562,114.576,42.655,255.901,42.655c141.341,0,255.901-19.094,255.901-42.655   c0-0.562-0.062-1.109-0.188-1.656V149.424z"/>
	<g>
		<path fill="#FB6D51" d="M320.062,372.951c-23.656,0-149.357-17.391-149.357-17.391l-63.124,17.062l20.992-55.655l-21.656-71.296    l63.788,37.874c0,0,109.935-17.218,149.357-17.218c39.437,0,84.842,34.796,84.842,53.312    C404.903,338.154,343.718,372.951,320.062,372.951z"/>
	</g>
	<path fill="#424953" d="M341.405,308.968c0,5.906-4.781,10.672-10.672,10.672s-10.672-4.766-10.672-10.672   c0-5.875,4.781-10.656,10.672-10.656S341.405,303.093,341.405,308.968z"/>
	<g opacity="0.2">
		<g>
			<path fill="#FFFFFF" d="M234.579,170.705c3.57,0,7.125-0.016,10.664-0.039C108.862,169.728,0.005,151.01,0.005,128.049v17.07     C39.512,160.182,129.674,170.705,234.579,170.705z"/>
		</g>
		<g>
			<path fill="#FFFFFF" d="M490.479,145.119V426.59c0,22.969-108.857,41.688-245.237,42.625c3.539,0.031,7.094,0.031,10.664,0.031     c141.325,0,255.901-19.094,255.901-42.656V128.049C511.808,134.119,504.198,139.893,490.479,145.119z"/>
		</g>
	</g>
</g>
</svg>
